<mxfile host="app.diagrams.net" modified="2024-03-15T21:40:36.596Z" agent="Mozilla/5.0 (Windows NT 10.0; Win64; x64) AppleWebKit/537.36 (KHTML, like Gecko) Chrome/122.0.0.0 Safari/537.36" etag="o1yMI6T5QShA4Dh94RuW" version="24.0.6" type="device">
  <diagram name="Página-1" id="Ht8o6bRort24iR0Knuon">
    <mxGraphModel dx="1434" dy="1925" grid="1" gridSize="10" guides="1" tooltips="1" connect="1" arrows="1" fold="1" page="1" pageScale="1" pageWidth="827" pageHeight="1169" math="0" shadow="0">
      <root>
        <mxCell id="0" />
        <mxCell id="1" parent="0" />
        <mxCell id="7ysGWCSupuFBAjEsN-H8-15" value="" style="rounded=0;whiteSpace=wrap;html=1;fillColor=none;" parent="1" vertex="1">
          <mxGeometry x="250" y="-800" width="410" height="340" as="geometry" />
        </mxCell>
        <mxCell id="7ysGWCSupuFBAjEsN-H8-1" style="edgeStyle=orthogonalEdgeStyle;rounded=0;orthogonalLoop=1;jettySize=auto;html=1;endArrow=none;endFill=0;entryX=0;entryY=0.5;entryDx=0;entryDy=0;" parent="1" source="7ysGWCSupuFBAjEsN-H8-4" target="7ysGWCSupuFBAjEsN-H8-10" edge="1">
          <mxGeometry relative="1" as="geometry">
            <mxPoint x="286" y="-570" as="targetPoint" />
          </mxGeometry>
        </mxCell>
        <mxCell id="7ysGWCSupuFBAjEsN-H8-2" style="edgeStyle=orthogonalEdgeStyle;rounded=0;orthogonalLoop=1;jettySize=auto;html=1;entryX=0;entryY=0.5;entryDx=0;entryDy=0;endArrow=none;endFill=0;" parent="1" source="7ysGWCSupuFBAjEsN-H8-4" target="7ysGWCSupuFBAjEsN-H8-9" edge="1">
          <mxGeometry relative="1" as="geometry" />
        </mxCell>
        <mxCell id="7ysGWCSupuFBAjEsN-H8-3" style="edgeStyle=orthogonalEdgeStyle;rounded=0;orthogonalLoop=1;jettySize=auto;html=1;entryX=0;entryY=0.5;entryDx=0;entryDy=0;endArrow=none;endFill=0;" parent="1" source="7ysGWCSupuFBAjEsN-H8-4" target="7ysGWCSupuFBAjEsN-H8-11" edge="1">
          <mxGeometry relative="1" as="geometry" />
        </mxCell>
        <mxCell id="7ysGWCSupuFBAjEsN-H8-4" value="Usuario&lt;br&gt;(consumidor de API)" style="shape=umlActor;verticalLabelPosition=bottom;verticalAlign=top;html=1;outlineConnect=0;" parent="1" vertex="1">
          <mxGeometry x="176" y="-650" width="30" height="60" as="geometry" />
        </mxCell>
        <mxCell id="7ysGWCSupuFBAjEsN-H8-5" value="&amp;lt;include&amp;gt;" style="rounded=0;orthogonalLoop=1;jettySize=auto;html=1;dashed=1;endArrow=open;endFill=0;exitX=1;exitY=0.5;exitDx=0;exitDy=0;entryX=0;entryY=0.5;entryDx=0;entryDy=0;" parent="1" source="7ysGWCSupuFBAjEsN-H8-10" target="7ysGWCSupuFBAjEsN-H8-8" edge="1">
          <mxGeometry relative="1" as="geometry">
            <mxPoint x="472" y="-600" as="sourcePoint" />
            <mxPoint x="542" y="-630" as="targetPoint" />
          </mxGeometry>
        </mxCell>
        <mxCell id="7ysGWCSupuFBAjEsN-H8-6" value="&amp;lt;include&amp;gt;" style="rounded=0;orthogonalLoop=1;jettySize=auto;html=1;dashed=1;endArrow=open;endFill=0;exitX=1;exitY=0.5;exitDx=0;exitDy=0;entryX=0;entryY=1;entryDx=0;entryDy=0;" parent="1" source="7ysGWCSupuFBAjEsN-H8-11" target="7ysGWCSupuFBAjEsN-H8-8" edge="1">
          <mxGeometry relative="1" as="geometry">
            <mxPoint x="706" y="-490" as="sourcePoint" />
            <mxPoint x="806" y="-520" as="targetPoint" />
          </mxGeometry>
        </mxCell>
        <mxCell id="7ysGWCSupuFBAjEsN-H8-7" value="&amp;lt;include&amp;gt;" style="rounded=0;orthogonalLoop=1;jettySize=auto;html=1;dashed=1;endArrow=open;endFill=0;exitX=1;exitY=0.5;exitDx=0;exitDy=0;entryX=0;entryY=0;entryDx=0;entryDy=0;" parent="1" source="7ysGWCSupuFBAjEsN-H8-9" target="7ysGWCSupuFBAjEsN-H8-8" edge="1">
          <mxGeometry relative="1" as="geometry">
            <mxPoint x="496" y="-790" as="sourcePoint" />
            <mxPoint x="576" y="-700" as="targetPoint" />
          </mxGeometry>
        </mxCell>
        <mxCell id="7ysGWCSupuFBAjEsN-H8-8" value="&lt;div&gt;Iniciar&amp;nbsp;&lt;span style=&quot;background-color: initial;&quot;&gt;Sesión&lt;/span&gt;&lt;/div&gt;" style="ellipse;whiteSpace=wrap;html=1;" parent="1" vertex="1">
          <mxGeometry x="531" y="-660" width="120" height="80" as="geometry" />
        </mxCell>
        <mxCell id="7ysGWCSupuFBAjEsN-H8-9" value="Buscar GIF" style="ellipse;whiteSpace=wrap;html=1;" parent="1" vertex="1">
          <mxGeometry x="336" y="-770" width="120" height="80" as="geometry" />
        </mxCell>
        <mxCell id="7ysGWCSupuFBAjEsN-H8-10" value="Buscar GIF por ID" style="ellipse;whiteSpace=wrap;html=1;" parent="1" vertex="1">
          <mxGeometry x="336" y="-660" width="120" height="80" as="geometry" />
        </mxCell>
        <mxCell id="7ysGWCSupuFBAjEsN-H8-11" value="Guardar GIF Favorito" style="ellipse;whiteSpace=wrap;html=1;" parent="1" vertex="1">
          <mxGeometry x="336" y="-560" width="120" height="80" as="geometry" />
        </mxCell>
      </root>
    </mxGraphModel>
  </diagram>
</mxfile>
